<svg xmlns="http://www.w3.org/2000/svg" viewBox="0 0 600 400" role="img" aria-labelledby="title desc">
  <title id="title">新品上市模板封面</title>
  <desc id="desc">清新绿色背景上的茶杯与蒸汽</desc>
  <defs>
    <linearGradient id="bg" x1="0" y1="0" x2="1" y2="1">
      <stop offset="0" stop-color="#e7f7ef"/>
      <stop offset="1" stop-color="#93d0b4"/>
    </linearGradient>
  </defs>
  <rect width="600" height="400" fill="url(#bg)"/>
  <circle cx="90" cy="90" r="46" fill="#ffffff" opacity="0.35"/>
  <circle cx="520" cy="330" r="64" fill="#ffffff" opacity="0.25"/>
  <path d="M250 140 q10 -18 26 -18 q16 0 26 18" fill="none" stroke="#ffffff" stroke-width="9" stroke-linecap="round" opacity="0.85"/>
  <path d="M290 116 q10 -18 26 -18 q16 0 26 18" fill="none" stroke="#ffffff" stroke-width="9" stroke-linecap="round" opacity="0.85"/>
  <path d="M205 195 h190 v64 a95 52 0 0 1 -190 0 z" fill="#ffffff"/>
  <ellipse cx="300" cy="196" rx="78" ry="16" fill="#9fd8bd"/>
  <path d="M170 312 h260 a28 20 0 0 1 -28 20 h-204 a28 20 0 0 1 -28 -20 z" fill="#0d6d49" opacity="0.85"/>
  <path d="M398 205 q42 0 42 30 q0 30 -42 30" fill="none" stroke="#ffffff" stroke-width="13" stroke-linecap="round"/>
  <text x="300" y="372" text-anchor="middle" font-family="&quot;PingFang SC&quot;,&quot;Microsoft YaHei UI&quot;,&quot;Noto Sans CJK SC&quot;,sans-serif" font-size="34" font-weight="700" letter-spacing="8" fill="#0d6d49">新品上市</text>
</svg>